<svg xmlns="http://www.w3.org/2000/svg" viewBox="0 0 16 16" fill="#000000" id="Discord-Logo-Fill--Streamline-Phosphor-Fill" height="16" width="16">
  <desc>
    Discord Logo Fill Streamline Icon: https://streamlinehq.com
  </desc>
  <path d="M15.808075 10.76961875 13.8800625 3.1653875c-0.10368125 -0.4045375 -0.437125 -0.70925625 -0.8493375 -0.77616875l-2.35595 -0.38678125c-0.5380875 -0.08654375 -1.0540875 0.2491625 -1.193 0.77616875l-0.01371875 0.0555375c-0.0376 0.14934375 0.0614375 0.29865 0.21364375 0.32209375 0.5406 0.07934375 1.07393125 0.20213125 1.59480625 0.36718125 0.270225 0.08153125 0.4308375 0.35875 0.367175 0.6337375 -0.07445625 0.2915875 -0.3791375 0.460225 -0.66575625 0.3684875 -1.93269375 -0.592725 -3.99833125 -0.595 -5.93233125 -0.0065375 -0.271875 0.09141875 -0.5676 -0.04695625 -0.67163125 -0.31425625 -0.10035 -0.27835625 0.050175 -0.58443125 0.33189375 -0.6749 0.52738125 -0.16798125 1.0675 -0.2929625 1.6150625 -0.3737125 0.15220625 -0.02344375 0.2512375 -0.17275 0.2136375 -0.32209375l-0.01371875 -0.0555375C6.381875 2.2511 5.86495 1.9154375 5.32653125 2.00309375l-2.35725 0.386775c-0.41204375 0.06681875 -0.7454375 0.37123125 -0.84934375 0.77551875L0.191925 10.76961875c-0.1248375 0.49360625 0.125525 1.0051125 0.59193125 1.20933125l4.37738125 1.941075c0.55579375 0.2470875 1.20490625 -0.02499375 1.4184 -0.59454375l0.22801875 -0.61740625c0.0581 -0.1581375 -0.0464125 -0.329125 -0.21364375 -0.3495375 -0.63469375 -0.07685625 -1.2608875 -0.21245625 -1.8705125 -0.40506875 -0.26905 -0.08176875 -0.4290875 -0.35763125 -0.366525 -0.63178125 0.0738125 -0.2924625 0.37918125 -0.4619125 0.66640625 -0.3697875 1.93995 0.59409375 4.01329375 0.59409375 5.9532375 0 0.28681875 -0.09170625 0.59160625 0.0772875 0.66575625 0.3691375 0.0632875 0.2744125 -0.0969625 0.55091875 -0.366525 0.63243125 -0.6093875 0.192675 -1.23536875 0.32828125 -1.8698625 0.405075 -0.16723125 0.02040625 -0.27174375 0.19139375 -0.21364375 0.34953125l0.22801875 0.6174125c0.21380625 0.56924375 0.8626 0.84119375 1.4184 0.5945375l4.37738125 -1.941075c0.46640625 -0.20421875 0.71676875 -0.715725 0.59193125 -1.20933125ZM5.647975 9.3067875c-0.60353125 0 -0.9807375 -0.65334375 -0.678975 -1.1760125 0.30176875 -0.522675 1.05618125 -0.522675 1.35794375 0 0.0688125 0.11918125 0.1050375 0.25438125 0.1050375 0.39200625 0 0.43299375 -0.3510125 0.78400625 -0.78400625 0.78400625Zm4.70405 0c-0.60353125 0 -0.9807375 -0.65334375 -0.67896875 -1.1760125 0.3017625 -0.522675 1.056175 -0.522675 1.35794375 0 0.06880625 0.11918125 0.1050375 0.25438125 0.1050375 0.39200625 0 0.43299375 -0.3510125 0.78400625 -0.7840125 0.78400625Z" stroke-width="0.0625"></path>
</svg>