<svg width="512" viewBox="0 0 256 256" xmlns="http://www.w3.org/2000/svg" xmlns:xlink="http://www.w3.org/1999/xlink"><path d="M237.16 180.497c-15.407 13.392-36.56 23.851-61.1 29.85a7.967 7.967 0 0 1-8.99-4.209l-12.026-24.05A189.305 189.305 0 0 1 128 184a189.305 189.305 0 0 1-27.044-1.912l-12.025 24.05a7.967 7.967 0 0 1-8.991 4.21c-24.539-6-45.693-16.46-61.1-29.85a8.054 8.054 0 0 1-2.472-8.391L50.342 58.861a8.02 8.02 0 0 1 4.626-5.11a175.868 175.868 0 0 1 29.664-9.182a8.018 8.018 0 0 1 9.32 5.286l7.973 23.92a192.475 192.475 0 0 1 52.15 0l7.973-23.92a8.018 8.018 0 0 1 9.32-5.286a175.888 175.888 0 0 1 29.664 9.182a8.023 8.023 0 0 1 4.627 5.11l33.973 113.246a8.051 8.051 0 0 1-2.471 8.39z" opacity=".2" fill="currentColor"/><path d="M108 144a12 12 0 1 1-12-12a12 12 0 0 1 12 12zm52-12a12 12 0 1 0 12 12a12 12 0 0 0-12-12zm82.41 54.534c-16.577 14.408-38.863 25.33-64.45 31.585a16.063 16.063 0 0 1-3.816.462a15.893 15.893 0 0 1-14.23-8.864l-9.49-18.98A199.136 199.136 0 0 1 128 192a199.143 199.143 0 0 1-22.424-1.263l-9.49 18.98a15.895 15.895 0 0 1-14.23 8.864a16.063 16.063 0 0 1-3.816-.462c-25.587-6.256-47.873-17.177-64.448-31.584a16.09 16.09 0 0 1-4.887-16.726L42.68 56.562a15.958 15.958 0 0 1 9.238-10.206a184.06 184.06 0 0 1 31.015-9.605a15.995 15.995 0 0 1 18.609 10.575l5.913 17.738a199 199 0 0 1 41.092 0l5.913-17.739a15.996 15.996 0 0 1 18.608-10.574a183.986 183.986 0 0 1 31.017 9.606a15.953 15.953 0 0 1 9.237 10.206l33.974 113.246a16.09 16.09 0 0 1-4.886 16.725zm-10.498-12.075l-33.916-113.3a167.557 167.557 0 0 0-28.329-8.773l-5.033 15.044a163.167 163.167 0 0 1 19.433 4.96a8 8 0 0 1-4.939 15.22C163.788 82.63 146.108 80 128 80c-18.104 0-35.785 2.63-51.13 7.61a8 8 0 1 1-4.937-15.22a163.37 163.37 0 0 1 19.443-4.962l-5.014-15.042a167.558 167.558 0 0 0-28.342 8.76l-33.99 113.26c14.718 12.795 34.688 22.518 57.81 28.17l7.192-14.472a161.408 161.408 0 0 1-17.098-4.495a8 8 0 1 1 4.938-15.218C92.212 173.369 109.892 176 128 176s35.787-2.63 51.128-7.61a8 8 0 0 1 4.938 15.22a161.454 161.454 0 0 1-17.072 4.489l7.23 14.462c23.058-5.637 43.028-15.36 57.688-28.102z" fill="currentColor"/></svg>